<?xml version="1.0" standalone="no"?>
<!DOCTYPE svg PUBLIC "-//W3C//DTD SVG 20010904//EN"
 "http://www.w3.org/TR/2001/REC-SVG-20010904/DTD/svg10.dtd">
<svg version="1.0" xmlns="http://www.w3.org/2000/svg"
 width="249.000000pt" height="249.000000pt" viewBox="0 0 249.000000 249.000000"
 preserveAspectRatio="xMidYMid meet">
<metadata>
Created by potrace 1.11, written by Peter Selinger 2001-2013
</metadata>
<g transform="translate(0.000000,249.000000) scale(0.100000,-0.100000)"
fill="#000000" stroke="none">
<path d="M1048 2365 c-2 -1 -30 -5 -64 -8 -122 -12 -310 -65 -419 -120 -92
-45 -213 -134 -289 -210 -91 -92 -142 -164 -191 -270 -58 -126 -70 -185 -70
-352 1 -143 2 -154 33 -243 44 -126 129 -273 185 -320 9 -8 21 -30 28 -50 25
-79 93 -145 204 -202 l57 -29 -37 -16 c-21 -8 -39 -15 -42 -15 -12 0 -213 -90
-321 -143 l-124 -62 54 -48 c29 -27 78 -73 109 -103 l57 -54 65 50 c328 248
762 432 1262 534 123 25 132 27 295 51 128 19 509 53 609 55 19 0 32 2 29 5
-2 3 -103 8 -224 11 -120 4 -220 7 -221 8 0 0 23 34 53 75 115 156 167 313
167 501 0 71 -7 141 -17 183 -93 392 -462 697 -924 762 -45 6 -259 15 -264 10z"/>
</g>
</svg>
